<svg width="500" height="500" version="1.0" viewBox="0 0 375 375" xmlns="http://www.w3.org/2000/svg" zoomAndPan="magnify">
    <defs>
        <clipPath id="av">
            <path d="m57.656 57.781h259.69v259.44h-259.69z"/>
        </clipPath>
        <clipPath id="u">
            <path d="m187.5 57.781c-71.711 0-129.84 58.078-129.84 129.72s58.133 129.72 129.84 129.72 129.84-58.078 129.84-129.72-58.133-129.72-129.84-129.72z"/>
        </clipPath>
        <clipPath id="bg">
            <path d="m64.215 64.336h246.57v246.33h-246.57z"/>
        </clipPath>
        <clipPath id="bl">
            <path d="m187.5 64.336c-68.09 0-123.29 55.141-123.29 123.16s55.195 123.16 123.29 123.16 123.29-55.141 123.29-123.16-55.195-123.16-123.29-123.16z"/>
        </clipPath>
        <clipPath id="j">
            <path d="m68.75 187.5h237.75v118.5h-237.75z"/>
        </clipPath>
        <clipPath id="bp">
            <path d="m68.492 68.996h237.75v118.5h-237.75z"/>
        </clipPath>
        <clipPath id="ag">
            <path d="m67.336 166.79h240.33v41.43h-240.33z"/>
        </clipPath>
        <clipPath id="bx">
            <path d="m62.863 174.66h249.27v25.688h-249.27z"/>
        </clipPath>
        <clipPath id="bz">
            <path d="m111.25 111.32h152.5v152.35h-152.5z"/>
        </clipPath>
        <clipPath id="ac">
            <path d="m187.5 111.32c-42.113 0-76.25 34.105-76.25 76.176s34.137 76.176 76.25 76.176 76.25-34.105 76.25-76.176-34.137-76.176-76.25-76.176z"/>
        </clipPath>
        <clipPath id="bf">
            <path d="m114.51 114.39h146.49v146.25h-146.49z"/>
        </clipPath>
        <clipPath id="ao">
            <path d="m156 149h62v62h-62z"/>
        </clipPath>
        <clipPath id="m">
            <path d="m187.85 260.19c-40.266 0-72.906-32.641-72.906-72.898 0-40.262 32.641-72.898 72.906-72.898 40.266 0 72.91 32.637 72.91 72.898 0 40.258-32.645 72.898-72.91 72.898"/>
        </clipPath>
        <clipPath id="c">
            <path d="m131 163h129.8v74h-129.8z"/>
        </clipPath>
        <clipPath id="bk">
            <path d="m187.85 260.19c-40.266 0-72.906-32.641-72.906-72.898 0-40.262 32.641-72.898 72.906-72.898 40.266 0 72.91 32.637 72.91 72.898 0 40.258-32.645 72.898-72.91 72.898"/>
        </clipPath>
        <clipPath id="bq">
            <path d="m114.84 222h101.16v13h-101.16z"/>
        </clipPath>
        <clipPath id="a">
            <path d="m187.85 260.19c-40.266 0-72.906-32.641-72.906-72.898 0-40.262 32.641-72.898 72.906-72.898 40.266 0 72.91 32.637 72.91 72.898 0 40.258-32.645 72.898-72.91 72.898"/>
        </clipPath>
        <clipPath id="t">
            <path d="m248 176h12.797v57h-12.797z"/>
        </clipPath>
        <clipPath id="e">
            <path d="m187.85 260.19c-40.266 0-72.906-32.641-72.906-72.898 0-40.262 32.641-72.898 72.906-72.898 40.266 0 72.91 32.637 72.91 72.898 0 40.258-32.645 72.898-72.91 72.898"/>
        </clipPath>
        <clipPath id="bv">
            <path d="m168 180h14v30h-14z"/>
        </clipPath>
        <clipPath id="aj">
            <path d="m187.85 260.19c-40.266 0-72.906-32.641-72.906-72.898 0-40.262 32.641-72.898 72.906-72.898 40.266 0 72.91 32.637 72.91 72.898 0 40.258-32.645 72.898-72.91 72.898"/>
        </clipPath>
        <clipPath id="w">
            <path d="m240 147h14v29h-14z"/>
        </clipPath>
        <clipPath id="bm">
            <path d="m187.85 260.19c-40.266 0-72.906-32.641-72.906-72.898 0-40.262 32.641-72.898 72.906-72.898 40.266 0 72.91 32.637 72.91 72.898 0 40.258-32.645 72.898-72.91 72.898"/>
        </clipPath>
        <clipPath id="bb">
            <path d="m164 197h6v12h-6z"/>
        </clipPath>
        <clipPath id="o">
            <path d="m187.85 260.19c-40.266 0-72.906-32.641-72.906-72.898 0-40.262 32.641-72.898 72.906-72.898 40.266 0 72.91 32.637 72.91 72.898 0 40.258-32.645 72.898-72.91 72.898"/>
        </clipPath>
        <clipPath id="k">
            <path d="m179 195h6v12h-6z"/>
        </clipPath>
        <clipPath id="ax">
            <path d="m187.85 260.19c-40.266 0-72.906-32.641-72.906-72.898 0-40.262 32.641-72.898 72.906-72.898 40.266 0 72.91 32.637 72.91 72.898 0 40.258-32.645 72.898-72.91 72.898"/>
        </clipPath>
        <clipPath id="br">
            <path d="m236 164h7v13h-7z"/>
        </clipPath>
        <clipPath id="v">
            <path d="m187.85 260.19c-40.266 0-72.906-32.641-72.906-72.898 0-40.262 32.641-72.898 72.906-72.898 40.266 0 72.91 32.637 72.91 72.898 0 40.258-32.645 72.898-72.91 72.898"/>
        </clipPath>
        <clipPath id="au">
            <path d="m205 180h6v12h-6z"/>
        </clipPath>
        <clipPath id="ar">
            <path d="m187.85 260.19c-40.266 0-72.906-32.641-72.906-72.898 0-40.262 32.641-72.898 72.906-72.898 40.266 0 72.91 32.637 72.91 72.898 0 40.258-32.645 72.898-72.91 72.898"/>
        </clipPath>
        <clipPath id="bj">
            <path d="m209 177h6v12h-6z"/>
        </clipPath>
        <clipPath id="al">
            <path d="m187.85 260.19c-40.266 0-72.906-32.641-72.906-72.898 0-40.262 32.641-72.898 72.906-72.898 40.266 0 72.91 32.637 72.91 72.898 0 40.258-32.645 72.898-72.91 72.898"/>
        </clipPath>
        <clipPath id="am">
            <path d="m250 155h9v19h-9z"/>
        </clipPath>
        <clipPath id="bh">
            <path d="m187.85 260.19c-40.266 0-72.906-32.641-72.906-72.898 0-40.262 32.641-72.898 72.906-72.898 40.266 0 72.91 32.637 72.91 72.898 0 40.258-32.645 72.898-72.91 72.898"/>
        </clipPath>
        <clipPath id="bd">
            <path d="m199 179h9v18h-9z"/>
        </clipPath>
        <clipPath id="aw">
            <path d="m187.85 260.19c-40.266 0-72.906-32.641-72.906-72.898 0-40.262 32.641-72.898 72.906-72.898 40.266 0 72.91 32.637 72.91 72.898 0 40.258-32.645 72.898-72.91 72.898"/>
        </clipPath>
        <clipPath id="d">
            <path d="m159 200h6v12h-6z"/>
        </clipPath>
        <clipPath id="ca">
            <path d="m187.85 260.19c-40.266 0-72.906-32.641-72.906-72.898 0-40.262 32.641-72.898 72.906-72.898 40.266 0 72.91 32.637 72.91 72.898 0 40.258-32.645 72.898-72.91 72.898"/>
        </clipPath>
        <clipPath id="by">
            <path d="m114.84 167h17.164v62h-17.164z"/>
        </clipPath>
        <clipPath id="ba">
            <path d="m187.85 260.19c-40.266 0-72.906-32.641-72.906-72.898 0-40.262 32.641-72.898 72.906-72.898 40.266 0 72.91 32.637 72.91 72.898 0 40.258-32.645 72.898-72.91 72.898"/>
        </clipPath>
        <clipPath id="z">
            <path d="m234 193h20v42h-20z"/>
        </clipPath>
        <clipPath id="an">
            <path d="m187.85 260.19c-40.266 0-72.906-32.641-72.906-72.898 0-40.262 32.641-72.898 72.906-72.898 40.266 0 72.91 32.637 72.91 72.898 0 40.258-32.645 72.898-72.91 72.898"/>
        </clipPath>
        <clipPath id="l">
            <path d="m207 204h20v41h-20z"/>
        </clipPath>
        <clipPath id="y">
            <path d="m187.85 260.19c-40.266 0-72.906-32.641-72.906-72.898 0-40.262 32.641-72.898 72.906-72.898 40.266 0 72.91 32.637 72.91 72.898 0 40.258-32.645 72.898-72.91 72.898"/>
        </clipPath>
        <clipPath id="bc">
            <path d="m204 214h11v22h-11z"/>
        </clipPath>
        <clipPath id="ay">
            <path d="m187.85 260.19c-40.266 0-72.906-32.641-72.906-72.898 0-40.262 32.641-72.898 72.906-72.898 40.266 0 72.91 32.637 72.91 72.898 0 40.258-32.645 72.898-72.91 72.898"/>
        </clipPath>
        <clipPath id="bi">
            <path d="m126 204h12v25h-12z"/>
        </clipPath>
        <clipPath id="p">
            <path d="m187.85 260.19c-40.266 0-72.906-32.641-72.906-72.898 0-40.262 32.641-72.898 72.906-72.898 40.266 0 72.91 32.637 72.91 72.898 0 40.258-32.645 72.898-72.91 72.898"/>
        </clipPath>
        <clipPath id="f">
            <path d="m219 196h20v42h-20z"/>
        </clipPath>
        <clipPath id="bo">
            <path d="m187.85 260.19c-40.266 0-72.906-32.641-72.906-72.898 0-40.262 32.641-72.898 72.906-72.898 40.266 0 72.91 32.637 72.91 72.898 0 40.258-32.645 72.898-72.91 72.898"/>
        </clipPath>
        <clipPath id="cc">
            <path d="m260 198h0.79688v42h-0.79688z"/>
        </clipPath>
        <clipPath id="i">
            <path d="m187.85 260.19c-40.266 0-72.906-32.641-72.906-72.898 0-40.262 32.641-72.898 72.906-72.898 40.266 0 72.91 32.637 72.91 72.898 0 40.258-32.645 72.898-72.91 72.898"/>
        </clipPath>
        <clipPath id="bw">
            <path d="m196 212h11v23h-11z"/>
        </clipPath>
        <clipPath id="bn">
            <path d="m187.85 260.19c-40.266 0-72.906-32.641-72.906-72.898 0-40.262 32.641-72.898 72.906-72.898 40.266 0 72.91 32.637 72.91 72.898 0 40.258-32.645 72.898-72.91 72.898"/>
        </clipPath>
        <clipPath id="bu">
            <path d="m133 208h12v25h-12z"/>
        </clipPath>
        <clipPath id="af">
            <path d="m187.85 260.19c-40.266 0-72.906-32.641-72.906-72.898 0-40.262 32.641-72.898 72.906-72.898 40.266 0 72.91 32.637 72.91 72.898 0 40.258-32.645 72.898-72.91 72.898"/>
        </clipPath>
        <clipPath id="s">
            <path d="m193 219h7v13h-7z"/>
        </clipPath>
        <clipPath id="ae">
            <path d="m187.85 260.19c-40.266 0-72.906-32.641-72.906-72.898 0-40.262 32.641-72.898 72.906-72.898 40.266 0 72.91 32.637 72.91 72.898 0 40.258-32.645 72.898-72.91 72.898"/>
        </clipPath>
        <clipPath id="ad">
            <path d="m142 211h7v14h-7z"/>
        </clipPath>
        <clipPath id="ak">
            <path d="m187.85 260.19c-40.266 0-72.906-32.641-72.906-72.898 0-40.262 32.641-72.898 72.906-72.898 40.266 0 72.91 32.637 72.91 72.898 0 40.258-32.645 72.898-72.91 72.898"/>
        </clipPath>
        <clipPath id="be">
            <path d="m114.84 189h2.1641v41h-2.1641z"/>
        </clipPath>
        <clipPath id="bt">
            <path d="m187.85 260.19c-40.266 0-72.906-32.641-72.906-72.898 0-40.262 32.641-72.898 72.906-72.898 40.266 0 72.91 32.637 72.91 72.898 0 40.258-32.645 72.898-72.91 72.898"/>
        </clipPath>
        <clipPath id="n">
            <path d="m114.84 231h145.96v29.188h-145.96z"/>
        </clipPath>
        <clipPath id="cd">
            <path d="m187.85 260.19c-40.266 0-72.906-32.641-72.906-72.898 0-40.262 32.641-72.898 72.906-72.898 40.266 0 72.91 32.637 72.91 72.898 0 40.258-32.645 72.898-72.91 72.898"/>
        </clipPath>
        <clipPath id="ab">
            <path d="m218 248h42.797v12.188h-42.797z"/>
        </clipPath>
        <clipPath id="at">
            <path d="m187.85 260.19c-40.266 0-72.906-32.641-72.906-72.898 0-40.262 32.641-72.898 72.906-72.898 40.266 0 72.91 32.637 72.91 72.898 0 40.258-32.645 72.898-72.91 72.898"/>
        </clipPath>
        <clipPath id="ah">
            <path d="m158 141h8v6h-8z"/>
        </clipPath>
        <clipPath id="bs">
            <path d="m187.85 260.19c-40.266 0-72.906-32.641-72.906-72.898 0-40.262 32.641-72.898 72.906-72.898 40.266 0 72.91 32.637 72.91 72.898 0 40.258-32.645 72.898-72.91 72.898"/>
        </clipPath>
        <clipPath id="r">
            <path d="m141 155h12v9h-12z"/>
        </clipPath>
        <clipPath id="aa">
            <path d="m187.85 260.19c-40.266 0-72.906-32.641-72.906-72.898 0-40.262 32.641-72.898 72.906-72.898 40.266 0 72.91 32.637 72.91 72.898 0 40.258-32.645 72.898-72.91 72.898"/>
        </clipPath>
        <clipPath id="cb">
            <path d="m166 156h11v9h-11z"/>
        </clipPath>
        <clipPath id="g">
            <path d="m187.85 260.19c-40.266 0-72.906-32.641-72.906-72.898 0-40.262 32.641-72.898 72.906-72.898 40.266 0 72.91 32.637 72.91 72.898 0 40.258-32.645 72.898-72.91 72.898"/>
        </clipPath>
        <clipPath id="ap">
            <path d="m209 143h4v5h-4z"/>
        </clipPath>
        <clipPath id="as">
            <path d="m187.85 260.19c-40.266 0-72.906-32.641-72.906-72.898 0-40.262 32.641-72.898 72.906-72.898 40.266 0 72.91 32.637 72.91 72.898 0 40.258-32.645 72.898-72.91 72.898"/>
        </clipPath>
        <clipPath id="aq">
            <path d="m184 143h6v4h-6z"/>
        </clipPath>
        <clipPath id="b">
            <path d="m187.85 260.19c-40.266 0-72.906-32.641-72.906-72.898 0-40.262 32.641-72.898 72.906-72.898 40.266 0 72.91 32.637 72.91 72.898 0 40.258-32.645 72.898-72.91 72.898"/>
        </clipPath>
        <clipPath id="h">
            <path d="m167 136h7v4h-7z"/>
        </clipPath>
        <clipPath id="az">
            <path d="m187.85 260.19c-40.266 0-72.906-32.641-72.906-72.898 0-40.262 32.641-72.898 72.906-72.898 40.266 0 72.91 32.637 72.91 72.898 0 40.258-32.645 72.898-72.91 72.898"/>
        </clipPath>
        <clipPath id="ai">
            <path d="m156 133h5v4h-5z"/>
        </clipPath>
        <clipPath id="q">
            <path d="m187.85 260.19c-40.266 0-72.906-32.641-72.906-72.898 0-40.262 32.641-72.898 72.906-72.898 40.266 0 72.91 32.637 72.91 72.898 0 40.258-32.645 72.898-72.91 72.898"/>
        </clipPath>
        <clipPath id="x">
            <path d="m157 134h62.328v94h-62.328z"/>
        </clipPath>
    </defs>
    <g clip-path="url(#av)">
        <g clip-path="url(#u)">
            <path d="m57.656 57.781h259.69v259.44h-259.69z" fill="#2f272a"/>
        </g>
    </g>
    <g clip-path="url(#bg)">
        <g clip-path="url(#bl)">
            <path d="m64.215 64.336h246.57v246.33h-246.57z" fill="#fff3e1"/>
        </g>
    </g>
    <g clip-path="url(#j)">
        <path d="m306.4 187.5c0 65.457-53.211 118.5-118.88 118.5-65.66 0-118.67-53.043-118.67-118.5z" fill="#1dbdbb"/>
    </g>
    <g clip-path="url(#bp)">
        <path d="m68.594 187.5c0-65.453 53.211-118.5 118.88-118.5 65.66 0 118.67 53.047 118.67 118.5z" fill="#1dbdbb"/>
    </g>
    <g clip-path="url(#ag)">
        <path d="m67.336 166.79h240.33v41.43h-240.33z" fill="#fff3e1"/>
    </g>
    <g clip-path="url(#bx)">
        <path d="m62.863 174.66h249.27v25.688h-249.27z" fill="#2f272a"/>
    </g>
    <g fill="#fff3e1">
        <g transform="translate(116.52 134.95)">
            <path d="m0.042969-16.438 3.0469 2.9023 2.2422-2.3516 0.58594 0.55469c0.16406 1.5977-0.33203 2.9883-1.4805 4.1914-1.0391 1.0938-2.2773 1.6758-3.6914 1.6914-1.4141 0.050781-2.6797-0.46875-3.7695-1.5078-1.0938-1.043-1.6562-2.2578-1.6914-3.6914-0.03125-1.3984 0.46875-2.6797 1.5117-3.7695 1.2539-1.3203 2.7305-1.8516 4.4453-1.6523l0.54687-4.6484c-1.5469-0.18359-3.0312-0.019531-4.5273 0.49609-1.4766 0.53125-2.7812 1.375-3.8906 2.5391-1.9219 2.0156-2.8359 4.4102-2.7695 7.1641 0.066407 2.7578 1.1172 5.0859 3.1094 6.9883 2.0156 1.918 4.3906 2.8516 7.1484 2.7852s5.0859-1.1172 7.0039-3.1289c1.4336-1.5078 2.1328-3.0703 2.1094-4.7031l1.3789 0.66406 2.3828-2.5039-8.1875-7.8008z"/>
        </g>
    </g>
    <g fill="#fff3e1">
        <g transform="translate(129.77 121.14)">
            <path d="m2.8359-20.879-2.4609-3.418-10.168 7.3242 11.395 15.816 10.168-7.3203-2.4609-3.418-6.2422 4.4961-2.0078-2.7852 5.3594-3.8555-2.4609-3.418-5.3594 3.8594-2.0039-2.7852z"/>
        </g>
    </g>
    <g fill="#fff3e1">
        <g transform="translate(140.49 112.77)">
            <path d="m6.1797-24.324 5.1836 11.234-13.305-7.4883-4.5781 2.1133 8.1719 17.703 4.3906-2.0273-5.207-11.281 13.301 7.543 4.6016-2.125-8.168-17.699z"/>
        </g>
    </g>
    <g fill="#fff3e1">
        <g transform="translate(158.85 104.31)">
            <path d="m10.414-10.457c1.0312-0.61719 1.7578-1.5078 2.207-2.6523 0.45312-1.1484 0.53906-2.3711 0.23438-3.6602-0.39062-1.6719-1.2734-2.9336-2.6367-3.8398-1.3789-0.87891-2.8828-1.1406-4.5273-0.75391l-8.3789 1.9688 4.457 18.977 4.707-1.1055-1.6523-7.0352 1.1406-0.26562 6.1055 5.9883 5.3906-1.2656zm-3.5703-2.5781-2.9102 0.68359-0.94922-4.0508 2.9102-0.68359c0.58203-0.13672 1.1094-0.046874 1.5781 0.24219 0.47656 0.31641 0.78906 0.75 0.92188 1.3086 0.13672 0.58203 0.046875 1.1094-0.24219 1.5781-0.28516 0.49219-0.72656 0.78516-1.3086 0.92188z"/>
        </g>
    </g>
    <g fill="#fff3e1">
        <g transform="translate(174.22 100.63)">
            <path d="m13.516-16.168-0.26562-4.2031-12.504 0.78906 1.2266 19.457 12.504-0.78906-0.26562-4.2031-7.6797 0.48438-0.21484-3.4219 6.5898-0.41797-0.26562-4.2031-6.5898 0.41797-0.21484-3.4258z"/>
        </g>
    </g>
    <g fill="#fff3e1">
        <g transform="translate(188.1 99.613)">
            <path d="m8 1.0195c1.9141 0.17969 3.5664-0.1875 4.9883-1.1211 1.418-0.9375 2.2266-2.2969 2.3945-4.0547 0.10547-1.1406-0.035156-2.1445-0.39453-3.0156-0.36328-0.87109-0.84766-1.5156-1.457-1.9922-0.63672-0.45313-1.3008-0.87891-2.0234-1.2617-0.74609-0.38281-1.418-0.70703-2.0508-0.95312-0.65625-0.24219-1.1719-0.55469-1.582-0.92969-0.41016-0.35547-0.57812-0.78906-0.53125-1.2773 0.042969-0.46875 0.20703-0.79297 0.53906-1.0195 0.33203-0.20703 0.73438-0.29688 1.1992-0.25391 1.0117 0.09375 1.9922 0.76172 2.9727 1.9805l3.332-2.6641c-0.69531-0.92578-1.5352-1.6836-2.5469-2.3047-1.0391-0.61719-2.1289-0.98438-3.3164-1.0938-1.7109-0.16406-3.2344 0.21484-4.5938 1.0781-1.3633 0.89062-2.125 2.2812-2.3008 4.1445-0.11719 1.2422 0.070313 2.3008 0.61328 3.1914 0.54297 0.88672 1.2109 1.5469 2.0547 1.9961 0.82031 0.46875 1.6406 0.88281 2.4961 1.2266s1.5508 0.72266 2.1367 1.1406c0.58984 0.42187 0.85547 0.91797 0.80078 1.4883-0.042969 0.46484-0.28906 0.83203-0.67578 1.0586-0.38672 0.25-0.91797 0.33203-1.5898 0.26563-0.88281-0.082032-1.6133-0.35938-2.2188-0.86328-0.63281-0.47656-1.0664-1.1172-1.332-1.9258l-4.0547 2.043c0.52344 1.3555 1.4336 2.4883 2.7031 3.4414 1.2656 0.95703 2.7539 1.5156 4.4375 1.6758z"/>
        </g>
    </g>
    <g fill="#fff3e1">
        <g transform="translate(201.74 100.55)">
            <path d="m10.648 3.2383c1.5508 0.42969 3.0938 0.51172 4.6445 0.18359 1.5391-0.29688 2.9062-0.94141 4.1406-1.8945l-2.8516-3.707c-1.3789 1.0742-2.9102 1.3477-4.6641 0.85938-1.4531-0.40625-2.5469-1.2227-3.2266-2.4648-0.71094-1.2227-0.84375-2.582-0.44141-4.0352 0.40625-1.4531 1.2148-2.5234 2.4648-3.2266 1.2148-0.6875 2.582-0.84375 4.0352-0.44141 1.7539 0.48828 2.918 1.543 3.5469 3.1484l4.3633-1.6992c-0.57031-1.4531-1.4141-2.6875-2.5703-3.7656-1.1641-1.0547-2.5156-1.8086-4.0703-2.2422-2.6797-0.74609-5.2227-0.42969-7.625 0.92578-2.4023 1.3555-3.9609 3.375-4.7031 6.0312-0.74609 2.6797-0.45312 5.2148 0.90234 7.6172s3.375 3.9609 6.0547 4.7109z"/>
        </g>
    </g>
    <g fill="#fff3e1">
        <g transform="translate(218.57 104.84)">
            <path d="m9.7344 5.3906c2.4414 1.2773 4.9844 1.5234 7.6172 0.70312 2.6289-0.82422 4.6016-2.4609 5.8945-4.9258 1.2773-2.4414 1.5-4.9961 0.67578-7.625-0.82031-2.6328-2.4609-4.6055-4.9023-5.8828-2.4609-1.2891-5.0156-1.5117-7.6484-0.69141-2.6328 0.82422-4.582 2.4727-5.8594 4.9141-1.2891 2.4648-1.5352 5.0078-0.71094 7.6367 0.82031 2.6328 2.4727 4.582 4.9336 5.8711zm2.1953-4.1914c-1.3359-0.69922-2.2344-1.7266-2.6406-3.082-0.4375-1.3477-0.28516-2.7031 0.41406-4.0391s1.7148-2.2109 3.0859-2.6406c1.332-0.41797 2.7031-0.28516 4.0391 0.41406 1.3359 0.69922 2.1992 1.7383 2.6367 3.082 0.40625 1.3594 0.28906 2.7031-0.41016 4.0391-0.69922 1.3359-1.7539 2.2227-3.0859 2.6406-1.3672 0.42969-2.7031 0.28516-4.0391-0.41406z"/>
        </g>
    </g>
    <g fill="#fff3e1">
        <g transform="translate(236.32 114.22)">
            <path d="m20.336-8.6758-6.7109-5.3867-12.207 15.203 3.7695 3.0273 4.8203-6 2.9375 2.3594c1.2969 1.0391 2.7344 1.4922 4.3242 1.3359 1.5781-0.13281 2.9023-0.87109 3.9414-2.168 1.043-1.2969 1.4766-2.75 1.3164-4.3789-0.17578-1.6055-0.89453-2.9531-2.1914-3.9922zm-5.5625 5.6367-2.3086-1.8555 2.293-2.8594 2.3125 1.8555c0.46484 0.375 0.73828 0.82813 0.84766 1.3516 0.09375 0.50781-0.019531 0.98047-0.34766 1.3867-0.33984 0.42578-0.77734 0.64062-1.293 0.66016-0.55469 0.023438-1.0352-0.16406-1.5039-0.53906z"/>
        </g>
    </g>
    <g fill="#fff3e1">
        <g transform="translate(247.74 123.24)">
            <path d="m21.066 0.54688 3.1289-2.8203-8.3867-9.3086-14.484 13.051 8.3828 9.3086 3.1289-2.8203-5.1484-5.7148 2.5508-2.2969 4.418 4.9062 3.1289-2.8203-4.418-4.9062 2.5469-2.2969z"/>
        </g>
    </g>
    <g fill="#fff3e1">
        <g transform="translate(108.57 247.81)">
            <path d="m11.469-2.8828-2.9062-3.2773-7.8594 6.957 1.4492 1.6328 3.2188-2.8477 1.4531 1.6445c0.57812 0.65234 1.2891 1.0117 2.1289 1.0742 0.83594 0.058594 1.5859-0.19141 2.2344-0.76562 0.65234-0.57812 0.99219-1.2891 1.0547-2.1484 0.050781-0.87109-0.19922-1.6172-0.77344-2.2695zm-3.5039 2.6523-1.2344-1.3906 1.8359-1.625 1.2344 1.3945c0.25781 0.29297 0.37891 0.61719 0.375 0.95312 0 0.33984-0.125 0.63672-0.39844 0.87891-0.27344 0.24219-0.58594 0.33203-0.92188 0.28906-0.33203-0.039062-0.62891-0.20703-0.89062-0.5z"/>
        </g>
    </g>
    <g fill="#fff3e1">
        <g transform="translate(115.72 255.79)">
            <path d="m6.25 5.6289 1.7578 1.582 3.8945-10.621-1.8203-1.6367-10.156 4.9805 1.7578 1.582 1.9219-1 3.4414 3.0977zm-0.91016-6.0195 4.1562-2.168-1.7227 4.3594z"/>
        </g>
    </g>
    <g fill="#fff3e1">
        <g transform="translate(125.31 264.21)">
            <path d="m7.7422 0.13281c0.61328 0.22656 1.2461 0.23047 1.8828 0.03125 0.64062-0.19922 1.1758-0.59375 1.5859-1.1758 0.51953-0.73047 0.70312-1.5273 0.58203-2.3672-0.13672-0.85156-0.56641-1.5312-1.2852-2.0391l-3.5742-2.5312-6.0664 8.5625 1.7812 1.2617 2.3945-3.3789 0.8125 0.57422-0.26953 4.8867 2.0547 1.4531zm-0.11328-2.0195-1.543-1.0898 1.5039-2.125 1.543 1.0898c0.30859 0.21875 0.5 0.50781 0.55859 0.85938 0.058594 0.35156-0.015625 0.67578-0.22656 0.97266-0.21875 0.30859-0.49609 0.48828-0.84766 0.54688-0.35156 0.058593-0.67969-0.035157-0.98828-0.25391z"/>
        </g>
    </g>
    <g fill="#fff3e1">
        <g transform="translate(134.66 270.66)">
            <path d="m11.828-5.375-6.543-3.6953-0.95703 1.6953 2.3281 1.3125-4.207 7.4453 1.8906 1.0664 4.2031-7.4453 2.3281 1.3164z"/>
        </g>
    </g>
    <g fill="#fff3e1">
        <g transform="translate(143.11 275.27)"/>
    </g>
    <g fill="#fff3e1">
        <g transform="translate(148.21 277.8)">
            <path d="m5.668 2.1875c1.3945 0.50391 2.7695 0.44531 4.1133-0.1875 1.3438-0.62891 2.2734-1.6484 2.7812-3.0586 0.5-1.3945 0.43359-2.7734-0.19922-4.1172-0.63281-1.3438-1.6523-2.2734-3.0469-2.7773-1.4102-0.50391-2.7891-0.4375-4.1289 0.19531-1.3438 0.63281-2.2617 1.6562-2.7656 3.0508-0.50781 1.4102-0.44922 2.7852 0.17969 4.125 0.63281 1.3438 1.6562 2.2617 3.0664 2.7695zm0.72656-2.0156c-0.87109-0.3125-1.4922-0.86328-1.8555-1.6641-0.38672-0.79297-0.41406-1.6211-0.10156-2.4883 0.30859-0.85547 0.85938-1.4766 1.6641-1.8555 0.78906-0.37109 1.6211-0.41406 2.4883-0.10156 0.85547 0.30859 1.4727 0.87109 1.8555 1.6641 0.36719 0.80078 0.41016 1.6367 0.10156 2.4922-0.3125 0.86719-0.875 1.4844-1.6641 1.8555-0.80469 0.37891-1.6328 0.40625-2.4883 0.097656z"/>
        </g>
    </g>
    <g fill="#fff3e1">
        <g transform="translate(161.68 282.38)">
            <path d="m9.3438-6.6211 0.4375-1.8789-6.2852-1.4648-2.3789 10.227 2.125 0.49219 0.97266-4.1719 3.5859 0.83594 0.4375-1.8828-3.5859-0.83203 0.53125-2.2891z"/>
        </g>
    </g>
    <g fill="#fff3e1">
        <g transform="translate(171.17 284.44)"/>
    </g>
    <g fill="#fff3e1">
        <g transform="translate(176.73 285.38)">
            <path d="m5.2969 0.49609c1.2305 0.082031 2.2695-0.18359 3.1406-0.79688 0.86719-0.61719 1.3438-1.4141 1.4102-2.418l0.47656-7.1055-2.1641-0.14844-0.44922 6.7031c-0.039063 0.55859-0.28125 1.0195-0.72266 1.3672-0.44531 0.35156-0.96094 0.5-1.5625 0.45703-0.61328-0.039063-1.1016-0.25391-1.4844-0.66016-0.37891-0.40234-0.54297-0.89062-0.50391-1.4492l0.44922-6.7031-2.1758-0.14844-0.48047 7.1094c-0.066407 0.99219 0.28125 1.8555 1.0625 2.582 0.77734 0.72656 1.7734 1.1289 3.0039 1.2109z"/>
        </g>
    </g>
    <g fill="#fff3e1">
        <g transform="translate(189.49 286.11)">
            <path d="m6.1289-0.20312c0.80859-0.046875 1.5703-0.25781 2.2734-0.66016 0.70703-0.39062 1.2969-0.91406 1.7656-1.5586l-1.7383-1.207c-0.58594 0.80469-1.3867 1.2305-2.4219 1.2852-0.92187 0.054688-1.707-0.21094-2.3555-0.78906-0.66406-0.58203-1.0156-1.3477-1.0664-2.2695-0.054688-0.92188 0.21094-1.707 0.80469-2.3555 0.58203-0.65234 1.332-1.0156 2.2539-1.0664 1.0312-0.058593 1.8945 0.28516 2.5508 1.0039l1.5898-1.3906c-0.52344-0.58984-1.1641-1.0273-1.9141-1.3516-0.74609-0.30859-1.5391-0.44531-2.3477-0.40234-1.4961 0.085938-2.7383 0.6875-3.7266 1.793-0.98828 1.1094-1.4336 2.4102-1.3516 3.8906 0.085938 1.4961 0.67188 2.7383 1.7812 3.7266 1.1055 0.98828 2.4062 1.4336 3.9023 1.3516z"/>
        </g>
    </g>
    <g fill="#fff3e1">
        <g transform="translate(202.25 285.27)">
            <path d="m5.6602-11.703 0.76562 4.1992-4.3516 0.79297-0.76562-4.1992-2.1484 0.39453 1.8867 10.324 2.1484-0.39062-0.76953-4.2148 4.3477-0.79297 0.76953 4.2109 2.1367-0.39062-1.8867-10.324z"/>
        </g>
    </g>
    <g fill="#fff3e1">
        <g transform="translate(214.84 282.72)">
            <path d="m1.1055-0.30859 2.1016-0.58984-2.8359-10.105-2.1016 0.58984z"/>
        </g>
    </g>
    <g fill="#fff3e1">
        <g transform="translate(221.07 281.06)">
            <path d="m4.1992-12.898 2.6211 6.7305-7.5508-4.8125-2.0859 0.8125 3.8086 9.7812 2.0352-0.79297-2.6328-6.7539 7.5469 4.8398 2.0859-0.80859-3.8047-9.7812z"/>
        </g>
    </g>
    <g fill="#fff3e1">
        <g transform="translate(234.03 275.82)">
            <path d="m0.93359-0.50781 2.9727-1.625c1.4375-0.78516 2.3438-1.8359 2.7109-3.1836 0.35937-1.3281 0.19141-2.6562-0.53125-3.9844-0.71875-1.3125-1.7461-2.1719-3.0625-2.6016-1.3242-0.41016-2.707-0.22656-4.1445 0.55859l-2.9727 1.6211zm0.97266-2.75-3.1641-5.7969 0.98047-0.53516c0.85938-0.46875 1.6953-0.57422 2.4844-0.30469 0.78516 0.27344 1.4258 0.83203 1.8867 1.6797 0.46875 0.85938 0.58594 1.6914 0.39062 2.5s-0.73438 1.4531-1.5977 1.9219z"/>
        </g>
    </g>
    <g fill="#fff3e1">
        <g transform="translate(245.03 269.67)">
            <path d="m6.8359-4.9023 1.9219-1.3789-9.543-6.0742-1.9883 1.4297 2.6953 10.984 1.9219-1.3789-0.57031-2.0898 3.7656-2.6992zm-6.0742-0.39844-1.2305-4.5234 3.8906 2.6172z"/>
        </g>
    </g>
    <g fill="#fff3e1">
        <g transform="translate(255.49 262.11)">
            <path d="m0.16406-14.645 1.5312 6.5586-6.4609-1.8711-1.6992 1.6211 7.2344 7.6016 1.582-1.5039-4.8555-5.0977 6.8711 2.0586-1.6914-6.9727 4.8438 5.0898 1.5742-1.4961-7.2383-7.6016z"/>
        </g>
    </g>
    <g fill="#fff3e1">
        <g transform="translate(266.57 251.07)">
            <path d="m0.74219-0.875 1.4102-1.6641-8.0039-6.7891-1.4141 1.6641z"/>
        </g>
    </g>
    <g clip-path="url(#bz)">
        <g clip-path="url(#ac)">
            <path d="m111.25 111.32h152.5v152.35h-152.5z" fill="#fff3e1"/>
        </g>
    </g>
    <g clip-path="url(#bf)">
        <path d="m187.85 260.19c-40.266 0-72.906-32.641-72.906-72.898 0-40.262 32.641-72.898 72.906-72.898 40.266 0 72.91 32.637 72.91 72.898 0 40.258-32.645 72.898-72.91 72.898" fill="#fff3e1"/>
    </g>
    <g clip-path="url(#ao)">
        <g clip-path="url(#m)">
            <path d="m217.56 180.29c0 16.84-13.656 30.492-30.496 30.492-16.844 0-30.496-13.652-30.496-30.492 0-16.84 13.652-30.492 30.496-30.492 16.84 0 30.496 13.652 30.496 30.492" fill="#fff3e1"/>
        </g>
    </g>
    <g clip-path="url(#c)">
        <g clip-path="url(#bk)">
            <path d="m279.96 205.54c0.007813-7.3438-0.85547-14.578-2.5938-21.711-1.7383-7.1328-4.2969-13.953-7.6797-20.469-4.7539 3.4688-10.426 7.7695-26.598 10.117-33.457 4.8633-48.438 34.234-77.617 33.844-29.18-0.38672-34.238 24.703-34.238 24.703l148.73 4.2812z" fill="#fff3e1"/>
        </g>
    </g>
    <g clip-path="url(#bq)">
        <g clip-path="url(#a)">
            <path d="m96.391 234.67 119.36-2.9297-41.141-7.8789h-13.715l-12.84-1.168-9.3359 0.58594-4.9609-1.168-2.6289 1.4609-5.543-0.58594-3.2109 0.58594-2.625-0.87891h-2.918l-3.2109 0.87891-9.3359 3.207-2.918-0.875-4.9805 1.3281z" fill="#fff3e1"/>
        </g>
    </g>
    <g clip-path="url(#t)">
        <g clip-path="url(#e)">
            <path d="m266.77 200.21-3.6562 2.1562 2.9609-4.9453-5.1836-20.723-2.5156 11.484 2.5156 4.8906-3.1211-2.1289-9.0859 41.43 26.203 0.29688z" fill="#fff3e1"/>
        </g>
    </g>
    <g clip-path="url(#bv)">
        <g clip-path="url(#aj)">
            <path d="m177.34 192.8-1.8438 1.0859 1.4922-2.4844-2.6094-10.43-1.2656 5.7773 1.2656 2.4609-1.5703-1.0703-4.5703 20.844 13.184 0.14844z" fill="#fff3e1"/>
        </g>
    </g>
    <g clip-path="url(#w)">
        <g clip-path="url(#bm)">
            <path d="m249.41 159.25-1.8438 1.0859 1.4922-2.4883-2.6094-10.43-1.2656 5.7812 1.2656 2.4609-1.5703-1.0703-4.5703 20.844 13.184 0.14844z" fill="#fff3e1"/>
        </g>
    </g>
    <g clip-path="url(#bb)">
        <g clip-path="url(#o)">
            <path d="m167.66 202.03-0.73438 0.43359 0.59375-0.99219-1.0391-4.1602-0.50781 2.3047 0.50781 0.98047-0.625-0.42578-1.8281 8.3203 5.2617 0.058593z" fill="#fff3e1"/>
        </g>
    </g>
    <g clip-path="url(#k)">
        <g clip-path="url(#ax)">
            <path d="m183.12 200.28-0.73438 0.43359 0.59375-0.99219-1.0391-4.1641-0.50781 2.3086 0.50781 0.98047-0.625-0.42578-1.8281 8.3164 5.2617 0.0625z" fill="#fff3e1"/>
        </g>
    </g>
    <g clip-path="url(#br)">
        <g clip-path="url(#v)">
            <path d="m240.61 169.64-0.73438 0.4375 0.59375-0.99609-1.0391-4.1602-0.50781 2.3086 0.50781 0.98047-0.625-0.42969-1.8281 8.3203 5.2617 0.058593z" fill="#fff3e1"/>
        </g>
    </g>
    <g clip-path="url(#au)">
        <g clip-path="url(#ar)">
            <path d="m208.75 185.06-0.73438 0.43359 0.59375-0.99609-1.043-4.1602-0.50391 2.3086 0.50391 0.98047-0.625-0.42969-1.8242 8.3203 5.2617 0.058594z" fill="#fff3e1"/>
        </g>
    </g>
    <g clip-path="url(#bj)">
        <g clip-path="url(#al)">
            <path d="m213.28 182.29-0.73438 0.43359 0.59375-0.99219-1.043-4.1641-0.50391 2.3086 0.50391 0.98047-0.625-0.42578-1.8242 8.3203 5.2617 0.058594z" fill="#fff3e1"/>
        </g>
    </g>
    <g clip-path="url(#am)">
        <g clip-path="url(#bh)">
            <path d="m256.39 163-1.1562 0.68359 0.9375-1.5586-1.6367-6.5391-0.79297 3.625 0.79297 1.543-0.98437-0.67578-2.8672 13.07 8.2656 0.09375z" fill="#fff3e1"/>
        </g>
    </g>
    <g clip-path="url(#bd)">
        <g clip-path="url(#aw)">
            <path d="m205.04 186.64-1.1562 0.68359 0.9375-1.5586-1.6367-6.5391-0.79688 3.625 0.79688 1.543-0.98438-0.67578-2.8672 13.07 8.2656 0.09375z" fill="#fff3e1"/>
        </g>
    </g>
    <g clip-path="url(#d)">
        <g clip-path="url(#ca)">
            <path d="m163.28 204.95-0.73438 0.43359 0.59375-0.99219-1.043-4.1641-0.50391 2.3086 0.50391 0.98047-0.625-0.42578-1.8242 8.3203 5.2617 0.058594z" fill="#fff3e1"/>
        </g>
    </g>
    <g clip-path="url(#by)">
        <g clip-path="url(#ba)">
            <path d="m123.07 193.55-3.9805 2.3477 3.2227-5.3789-5.6406-22.551-2.7383 12.496 2.7383 5.3242-3.3945-2.3164-9.8867 45.074 28.512 0.32422z" fill="#fff3e1"/>
        </g>
    </g>
    <g clip-path="url(#z)">
        <g clip-path="url(#an)">
            <path d="m247.71 210.95-2.668 1.5742 2.1602-3.6016-3.7812-15.109-1.832 8.3711 1.832 3.5664-2.2734-1.5508-6.625 30.199 19.102 0.21484z" fill="#fff3e1"/>
        </g>
    </g>
    <g clip-path="url(#l)">
        <g clip-path="url(#y)">
            <path d="m220.87 221.26-2.6641 1.5742 2.1562-3.6055-3.7773-15.109-1.8359 8.375 1.8359 3.5625-2.2734-1.5508-6.625 30.199 19.102 0.21484z" fill="#fff3e1"/>
        </g>
    </g>
    <g clip-path="url(#bc)">
        <g clip-path="url(#ay)">
            <path d="m211.58 223.18-1.418 0.83594 1.1484-1.918-2.0117-8.0508-0.97656 4.4609 0.97656 1.8984-1.2148-0.82422-3.5273 16.09 10.176 0.11328z" fill="#fff3e1"/>
        </g>
    </g>
    <g clip-path="url(#bi)">
        <g clip-path="url(#p)">
            <path d="m133.93 214.3-1.5469 0.91016 1.2539-2.0898-2.1914-8.7578-1.0625 4.8555 1.0625 2.0664-1.3203-0.89844-3.8398 17.508 11.074 0.125z" fill="#fff3e1"/>
        </g>
    </g>
    <g clip-path="url(#f)">
        <g clip-path="url(#bo)">
            <path d="m225.07 213.87 2.668 1.5742-2.1602-3.6016 3.7812-15.109 1.8359 8.3711-1.8359 3.5664 2.2734-1.5508 6.625 30.199-19.102 0.21484z" fill="#fff3e1"/>
        </g>
    </g>
    <g clip-path="url(#cc)">
        <g clip-path="url(#i)">
            <path d="m266.9 215.62 2.668 1.5742-2.1602-3.6016 3.7812-15.109 1.8359 8.3711-1.8359 3.5664 2.2734-1.5508 6.625 30.199-19.102 0.21484z" fill="#fff3e1"/>
        </g>
    </g>
    <g clip-path="url(#bw)">
        <g clip-path="url(#bn)">
            <path d="m199.7 222.07 1.4453 0.85547-1.1719-1.957 2.0508-8.1953 0.99609 4.543-0.99609 1.9336 1.2344-0.84375 3.5938 16.387-10.363 0.11719z" fill="#fff3e1"/>
        </g>
    </g>
    <g clip-path="url(#bu)">
        <g clip-path="url(#af)">
            <path d="m137.2 218.61 1.5742 0.92969-1.2734-2.125 2.2305-8.918 1.082 4.9414-1.082 2.1016 1.3438-0.91406 3.9062 17.828-11.273 0.125z" fill="#fff3e1"/>
        </g>
    </g>
    <g clip-path="url(#s)">
        <g clip-path="url(#ae)">
            <path d="m195.35 224.16 0.78125 0.46484-0.63281-1.0586 1.1094-4.4375 0.53906 2.457-0.53906 1.0469 0.66797-0.45312 1.9453 8.8672-5.6094 0.066407z" fill="#fff3e1"/>
        </g>
    </g>
    <g clip-path="url(#ad)">
        <g clip-path="url(#ak)">
            <path d="m144.53 217.39 0.85547 0.50391-0.69141-1.1523 1.207-4.8281 0.58594 2.6758-0.58594 1.1367 0.72656-0.49219 2.1172 9.6484-6.1055 0.070312z" fill="#fff3e1"/>
        </g>
    </g>
    <g clip-path="url(#be)">
        <g clip-path="url(#bt)">
            <path d="m102.91 206.28 2.668 1.5742-2.1602-3.6016 3.7773-15.109 1.8359 8.3711-1.8359 3.5664 2.2773-1.5508 6.6211 30.199-19.098 0.21484z" fill="#fff3e1"/>
        </g>
    </g>
    <g clip-path="url(#n)">
        <g clip-path="url(#cd)">
            <path d="m96.391 231.74h183.57v28.59h-183.57z" fill="#2f272a"/>
        </g>
    </g>
    <g clip-path="url(#ab)">
        <g clip-path="url(#at)">
            <path d="m279.96 248.66h-42.609l-18.965 6.7109 61.574 5.2695z" fill="#fff3e1"/>
        </g>
    </g>
    <g clip-path="url(#ah)">
        <g clip-path="url(#bs)">
            <path d="m158.56 145.48 5.1562 0.97266s0.875-2.3359 1.6523-4.5742c-2.5273 2.043-2.5273 3.0156-2.5273 3.0156z" fill="#fff3e1"/>
        </g>
    </g>
    <g clip-path="url(#r)">
        <g clip-path="url(#aa)">
            <path d="m141.89 155.27 2.8672 8.2031s4.0781-0.67188 7.9336-1.4062c-5.0273-1.9414-6.4219-1.1367-6.4219-1.1367z" fill="#fff3e1"/>
        </g>
    </g>
    <g clip-path="url(#cb)">
        <g clip-path="url(#g)">
            <path d="m166.13 164.62 8.6914-0.0625s0.67969-4.0742 1.2305-7.9609c-3.4609 4.1289-3.1484 5.7109-3.1484 5.7109z" fill="#fff3e1"/>
        </g>
    </g>
    <g clip-path="url(#ap)">
        <g clip-path="url(#as)">
            <path d="m209.04 147.03 3.7617-0.5s0.070313-1.8008 0.10156-3.5156c-1.2773 1.9766-1.0586 2.6445-1.0586 2.6445z" fill="#fff3e1"/>
        </g>
    </g>
    <g clip-path="url(#aq)">
        <g clip-path="url(#b)">
            <path d="m184.5 143.11 2.1016 3.1562s1.6484-0.72266 3.1992-1.4531c-2.332-0.27734-2.8359 0.21484-2.8359 0.21484z" fill="#fff3e1"/>
        </g>
    </g>
    <g clip-path="url(#h)">
        <g clip-path="url(#az)">
            <path d="m167.97 136.05 2.2188 3.0781s1.6211-0.78516 3.1445-1.5703c-2.3438-0.19141-2.8281 0.31641-2.8281 0.31641z" fill="#fff3e1"/>
        </g>
    </g>
    <g clip-path="url(#ai)">
        <g clip-path="url(#q)">
            <path d="m156.34 133.83 1.6562 2.3008s1.2109-0.58594 2.3516-1.1719c-1.7539-0.14453-2.1172 0.23828-2.1172 0.23828z" fill="#fff3e1"/>
        </g>
    </g>
    <g clip-path="url(#x)">
        <path d="m217.61 188.75c0.42578-0.46484 0.70312-1.0977 0.68359-1.8594-0.054687-16.789-0.48047-33.543-0.09375-50.348 0.039063-2.0469-2.1445-3.0117-3.793-2.1953-6.2344 3.0664-12.953 5.2812-19.41 7.8477-6.0703 2.4336-12.102 4.8867-18.098 7.4922-0.84766-0.82031-2.5312-0.51953-2.5508 1.0234-0.11328 9.6836 0.40625 19.371 1.0898 29.023 0.59375 8.3477 1.0547 16.938 2.3516 25.266-6.293 0.35156-13.359 1.7305-17.578 6.4336-4.5898 5.0938-2.2383 12.418 3.9219 14.836 6.3828 2.5117 14.691-1.375 18.613-6.6016 1.8711-2.4727 2.9062-5.668 1.6484-8.6641-0.25781-0.59375-0.57422-1.1523-0.96094-1.6328 0.35156-0.48438 0.55469-1.0625 0.51562-1.6367-0.86719-9.5039-2.6641-18.965-3.7383-28.449-0.42578-3.7539-0.8125-7.5273-1.1641-11.285 2.4961-0.85547 4.8672-2.1562 7.2734-3.2148 3.0156-1.3398 6.0508-2.5859 9.1211-3.793 2.8672-1.1367 5.7539-2.1953 8.6797-3.1797 2.793-0.94922 5.7344-1.6172 8.4531-2.7539-0.22266 9.0547-0.3125 18.109-0.054687 27.129-5.2344-1.6758-11.121-0.44531-14.914 4.1641-4.9766 6.043-3.8672 15.266 3.9961 18.07 7.0703 2.5312 16.082-2.1367 17.32-9.7969 0.35156-2.3594-0.20312-4.332-1.3125-5.875zm-52.496 29.523c0-0.054688 0.019531-0.10938 0.019531-0.16406 0.16406 1.3008 0.72266 2.5273 1.6641 3.4375-1.1641-0.33594-1.9062-1.3008-1.6836-3.2734zm15.172-1.8008c0.33594-0.67188 0.62891-1.3594 0.81641-2.0469-0.11328 0.72656-0.40625 1.3945-0.81641 2.0469zm30.754-66.711c-3.1094 0.51953-6.2344 1.9531-9.1758 3.0469-2.9609 1.1172-5.9023 2.3086-8.8281 3.5703-4.7383 2.0469-10.047 4.2031-14.434 7.1953-0.36719-3.8672-0.71875-7.75-1.1094-11.617 6.4961-2.0117 12.914-4.1836 19.336-6.3789 5.3672-1.8398 10.734-3.9805 16.172-5.6328-0.12891 3.3438-0.23828 6.7109-0.33203 10.059-0.48047-0.24219-1.0547-0.35547-1.6289-0.24219zm1.6094 46.574c-0.42578 0.59375-1 1.1328-1.6641 1.5977 1.1836-1.207 2.0703-2.6406 2.4219-4.125 0.11328-0.16797 0.20703-0.35547 0.29688-0.52344 0.039063 0.94922-0.29688 2.0078-1.0547 3.0508z" fill="#2f272a"/>
    </g>
    <g fill="#fff3e1">
        <g transform="translate(74.552 191.25)">
            <path d="m5.5781-5.8789v-1.6211h-4.8164v7.5h4.8164v-1.6211h-2.957v-1.3164h2.5391v-1.6211h-2.5391v-1.3203z"/>
        </g>
    </g>
    <g fill="#fff3e1">
        <g transform="translate(80.579 191.25)">
            <path d="m3.0977 0.10156c0.74219 0 1.3594-0.20312 1.8711-0.61328 0.51172-0.40625 0.76953-0.95703 0.76953-1.6367 0-0.44141-0.089843-0.82031-0.25781-1.1406-0.17188-0.32031-0.38281-0.55078-0.63281-0.71094-0.25781-0.14844-0.52734-0.28906-0.82031-0.41016-0.29688-0.11719-0.56641-0.21875-0.81641-0.28906-0.26172-0.070312-0.47266-0.16797-0.64063-0.30078-0.17187-0.11719-0.25-0.27734-0.25-0.46875 0-0.17969 0.050782-0.30859 0.16797-0.41016 0.12109-0.089844 0.26953-0.14062 0.44922-0.14062 0.39062 0 0.79297 0.22266 1.2109 0.65234l1.1797-1.1406c-0.30078-0.33203-0.64844-0.58984-1.0586-0.78906-0.42188-0.20312-0.85156-0.30078-1.3086-0.30078-0.66016 0-1.2305 0.19922-1.7227 0.57812-0.48828 0.39062-0.72656 0.94922-0.72656 1.6719 0 0.48047 0.10938 0.87891 0.34766 1.1992 0.24219 0.32031 0.51953 0.55078 0.85938 0.6875 0.33203 0.15234 0.66016 0.28125 1 0.38281 0.33984 0.097656 0.62109 0.21875 0.85938 0.35938 0.24219 0.14062 0.35938 0.32031 0.35938 0.53906 0 0.17969-0.078125 0.33203-0.21875 0.42969-0.14062 0.10938-0.33984 0.16016-0.59766 0.16016-0.33984 0-0.63281-0.078125-0.88281-0.25-0.25781-0.16016-0.44922-0.39062-0.57812-0.69141l-1.4805 0.93359c0.25 0.49609 0.64062 0.89844 1.1602 1.2188 0.51953 0.32031 1.1094 0.48047 1.7578 0.48047z"/>
        </g>
    </g>
    <g fill="#fff3e1">
        <g transform="translate(86.587 191.25)">
            <path d="m5.6367-7.5h-5.5352v1.6211h1.8477v5.8789h1.8516v-5.8789h1.8359z"/>
        </g>
    </g>
    <g fill="#fff3e1">
        <g transform="translate(92.325 191.25)">
            <path d="m0.69922 0h2.5703c1.2305 0 2.1797-0.35156 2.8477-1.0586 0.66016-0.69922 1-1.6016 1-2.6914 0-1.0781-0.33984-1.9805-1-2.6875-0.66797-0.69922-1.6172-1.0625-2.8477-1.0625h-2.5703zm1.8594-1.6211v-4.2578h0.60938c0.66016 0 1.1523 0.19922 1.4922 0.58984 0.33984 0.39844 0.50781 0.91016 0.50781 1.5391 0 0.64062-0.16797 1.1523-0.50781 1.5391-0.33984 0.40234-0.83203 0.58984-1.4922 0.58984z"/>
        </g>
    </g>
    <g fill="#fff3e1">
        <g transform="translate(275.85 191.25)">
            <path d="m2.7383-1.5703c1.0195-1.0977 1.6719-1.8906 1.9688-2.3477 0.29297-0.46094 0.44141-0.97266 0.45312-1.5391 0-0.61328-0.22266-1.1211-0.66016-1.5312-0.44922-0.41016-1.0117-0.62109-1.6719-0.62109-0.71875 0-1.3281 0.23047-1.8281 0.69141-0.5 0.46094-0.71875 1.0391-0.64062 1.7188h1.7305c-0.050782-0.23828-0.011719-0.4375 0.12109-0.59766 0.12891-0.15234 0.30859-0.23047 0.52734-0.23047 0.17969 0 0.35156 0.058594 0.49219 0.16016 0.14062 0.10938 0.20703 0.29688 0.20703 0.55859 0 0.17969-0.046875 0.35938-0.13672 0.53906-0.089843 0.17969-0.35156 0.53125-0.78125 1.0508-0.44141 0.53125-1.1289 1.3203-2.0781 2.3672v1.3516h4.8281v-1.5703z"/>
        </g>
    </g>
    <g fill="#fff3e1">
        <g transform="translate(281.46 191.25)">
            <path d="m3.2383 0.10156c0.89062 0 1.582-0.33984 2.082-1.0195 0.5-0.67969 0.75-1.6211 0.75-2.832 0-1.1992-0.25-2.1484-0.75-2.8281s-1.1914-1.0195-2.082-1.0195c-0.89844 0-1.5977 0.33984-2.0977 1.0195s-0.74219 1.6289-0.74219 2.8281c0 1.2109 0.24219 2.1523 0.74219 2.832 0.5 0.67969 1.1992 1.0195 2.0977 1.0195zm0-1.6797c-0.32031 0-0.57031-0.19141-0.75781-0.58984-0.19141-0.40234-0.28125-0.92188-0.28125-1.582 0-0.64844 0.089843-1.168 0.28125-1.5703 0.1875-0.39844 0.4375-0.59766 0.75781-0.59766 0.3125 0 0.5625 0.19922 0.75 0.59766 0.17969 0.40234 0.28125 0.92187 0.28125 1.5703 0 0.66016-0.10156 1.1797-0.28125 1.582-0.1875 0.39844-0.4375 0.58984-0.75 0.58984z"/>
        </g>
    </g>
    <g fill="#fff3e1">
        <g transform="translate(287.93 191.25)">
            <path d="m2.7383-1.5703c1.0195-1.0977 1.6719-1.8906 1.9688-2.3477 0.29297-0.46094 0.44141-0.97266 0.45312-1.5391 0-0.61328-0.22266-1.1211-0.66016-1.5312-0.44922-0.41016-1.0117-0.62109-1.6719-0.62109-0.71875 0-1.3281 0.23047-1.8281 0.69141-0.5 0.46094-0.71875 1.0391-0.64062 1.7188h1.7305c-0.050782-0.23828-0.011719-0.4375 0.12109-0.59766 0.12891-0.15234 0.30859-0.23047 0.52734-0.23047 0.17969 0 0.35156 0.058594 0.49219 0.16016 0.14062 0.10938 0.20703 0.29688 0.20703 0.55859 0 0.17969-0.046875 0.35938-0.13672 0.53906-0.089843 0.17969-0.35156 0.53125-0.78125 1.0508-0.44141 0.53125-1.1289 1.3203-2.0781 2.3672v1.3516h4.8281v-1.5703z"/>
        </g>
    </g>
    <g fill="#fff3e1">
        <g transform="translate(293.55 191.25)">
            <path d="m4.4805-4.2773c0.45703-0.33203 0.6875-0.76953 0.6875-1.3203 0-0.55078-0.21875-1.0195-0.66016-1.4102-0.4375-0.39063-0.96875-0.58984-1.6094-0.58984-0.66016 0-1.207 0.19922-1.6289 0.57812-0.42969 0.38281-0.64062 0.90234-0.64062 1.5625h1.7305c0-0.15234 0.050781-0.27344 0.14844-0.36328 0.10156-0.078126 0.23047-0.12891 0.40234-0.12891 0.17969 0 0.33984 0.0625 0.46094 0.16016 0.11719 0.10156 0.1875 0.25 0.1875 0.44141 0 0.1875-0.070313 0.34766-0.1875 0.48047-0.12109 0.12891-0.28125 0.1875-0.47266 0.1875h-0.57031l0.011719 1.4102h0.67969c0.23047 0 0.41797 0.082031 0.57031 0.24219 0.14062 0.15625 0.21875 0.35938 0.21875 0.59766 0 0.26172-0.078125 0.46094-0.21875 0.62109-0.15234 0.16016-0.35156 0.23828-0.60156 0.23828-0.20703 0-0.39062-0.050782-0.52734-0.16797-0.15234-0.10938-0.22266-0.26172-0.22266-0.44922h-1.7695c0 0.69922 0.24219 1.2461 0.72266 1.668 0.47656 0.41797 1.0781 0.62109 1.7891 0.62109 0.73047 0 1.3398-0.24219 1.8398-0.72266 0.5-0.48047 0.75-1.0586 0.75-1.7578 0-0.83203-0.37109-1.4609-1.0898-1.8984z"/>
        </g>
    </g>
</svg>
